# xmcd
#
# Track frame offsets: 
#        150
#        16956
#        27849
#        44382
#        61174
#        79557
#        93660
#        106165
#        120070
#        133523
#        150690
#        162825
#        176778
#        188101
#
# Disc length: 2611 seconds
#
# Revision: 0
# Processed by: cddbd v1.5.1PL0 Copyright (c) Steve Scherf et al.
# Submitted via: ExactAudioCopy v0.95a5
#
DISCID=a20a310e
DTITLE=The Coastline Band - Contents Under Pressure
DYEAR=1900
DGENRE=R&B
TTITLE0=Late At Night
TTITLE1=It's Gonna Rain
TTITLE2=All The Time In The World
TTITLE3=Thirty Years Of Love
TTITLE4=Look At That Cadilac
TTITLE5=Sweeter As The Day Goes By
TTITLE6=Shake!
TTITLE7=Nothing Can Change This Love
TTITLE8=Straighten Up And Fly Right
TTITLE9=Where Are You Tonight?
TTITLE10=Smokey Joe's Cafe
TTITLE11=It's Better To Have Loved A Little
TTITLE12=Direct Me
TTITLE13=Hush
EXTD=
EXTT0=
EXTT1=
EXTT2=
EXTT3=
EXTT4=
EXTT5=
EXTT6=
EXTT7=
EXTT8=
EXTT9=
EXTT10=
EXTT11=
EXTT12=
EXTT13=
PLAYORDER=
